<mxfile host="app.diagrams.net" modified="2024-06-14T09:58:06.754Z" agent="Mozilla/5.0 (Macintosh; Intel Mac OS X 10_15_7) AppleWebKit/537.36 (KHTML, like Gecko) Chrome/125.0.0.0 Safari/537.36" version="24.5.4" etag="TcixvXqQoGrrs4M8hcgp" type="github">
  <diagram name="Page-1" id="0yVpy5H-4N0UcyYEXLbh">
    <mxGraphModel>
      <root>
        <mxCell id="0" />
        <mxCell id="1" parent="0" />
      </root>
    </mxGraphModel>
  </diagram>
</mxfile>
